<?xml version="1.0" encoding="UTF-8"?>
<svg id="_图层_2" data-name="图层_2" xmlns="http://www.w3.org/2000/svg" viewBox="0 0 250 350">
  <defs>
    <style>
      .cls-1 {
        fill: #ff00b5;
      }

      .cls-2 {
        fill: #fff;
      }
    </style>
  </defs>
  <g id="_图层_1-2" data-name="图层_1">
    <path class="cls-1" d="M236.98,137.51c-2.8,25.31-14.26,49.16-32.31,67.16-21.31,21.28-49.6,33-79.67,33-13.08,0-25.83-2.21-37.95-6.57l20.69-16.04c14.71-11.38,23.5-29.29,23.5-47.91V12.51c27.67,1.5,53.7,13.14,73.43,32.85,18.08,18.03,29.55,41.87,32.31,67.16h13.02V0h-125C56.07,0,0,56.07,0,125v125h250v-112.49h-13.02ZM12.35,125c0-30.07,11.71-58.35,32.98-79.64,19.73-19.71,45.77-31.34,73.43-32.85v154.64c0,14.77-6.97,29-18.63,38.06l-26.19,20.24c-38.01-19.36-61.59-57.78-61.59-100.45Z"/>
    <rect class="cls-1" y="250" width="250" height="100"/>
    <g>
      <path class="cls-2" d="M20.84,289.88v8.75c-4.29-.27-7.99-1.95-11.1-5.06-3.41-3.41-5.11-7.52-5.11-12.34s1.7-8.94,5.11-12.34c3.11-3.11,6.81-4.8,11.1-5.06v8.75c-1.88.25-3.52,1.07-4.91,2.47-1.71,1.71-2.57,3.77-2.57,6.18s.86,4.46,2.57,6.16c1.4,1.41,3.03,2.24,4.91,2.49ZM29.36,276.36c-.32-.47-.68-.91-1.1-1.32-1.41-1.4-3.06-2.22-4.94-2.47v-8.75c4.29.27,7.99,1.95,11.1,5.06.83.83,1.56,1.71,2.19,2.64l-7.26,4.84ZM36.62,290.92c-.63.93-1.36,1.81-2.19,2.64-3.11,3.11-6.81,4.8-11.1,5.06v-8.75c1.88-.25,3.52-1.08,4.94-2.49.42-.42.78-.85,1.1-1.3l7.26,4.84Z"/>
      <path class="cls-2" d="M51.61,289.78v8.85c-3.09-.27-5.76-1.53-8-3.79-2.56-2.54-3.84-5.63-3.84-9.25v-21.82h8.73v21.82c0,1.21.42,2.24,1.27,3.09.55.55,1.16.91,1.85,1.1ZM57.22,263.77h8.73v21.82c0,3.62-1.28,6.71-3.84,9.25-2.26,2.26-4.93,3.52-8,3.79v-8.85c.68-.2,1.3-.57,1.85-1.1.85-.85,1.27-1.88,1.27-3.09v-21.82Z"/>
      <path class="cls-2" d="M68.66,263.77h8.73v34.91h-8.73v-34.91ZM79.89,272.5v-8.73h4.06c3.01,0,5.58,1.06,7.7,3.19,2.13,2.13,3.19,4.7,3.19,7.7s-1.06,5.6-3.19,7.73c-2.13,2.13-4.7,3.19-7.7,3.19h-4.06v-8.73h4.06c.6,0,1.11-.21,1.53-.64.42-.42.64-.94.64-1.56s-.21-1.11-.64-1.53c-.42-.42-.94-.64-1.53-.64h-4.06ZM84.87,287.46c1.61,0,3.11-.28,4.49-.85l5.49,12.07h-8.73l-5.11-11.22h3.87Z"/>
      <path class="cls-2" d="M97.57,263.77h8.75l-.03,34.91h-8.73v-34.91ZM108.79,289.95h13.71v8.73h-13.71v-8.73Z"/>
      <path class="cls-2" d="M138.31,282l-14.31-18.23h9.97l13.71,17.46-.62.8v16.66h-8.73l-.02-16.68ZM143.95,273.29l7.48-9.53h9.97l-12.47,15.86-4.99-6.33Z"/>
      <path class="cls-2" d="M4.63,311.63v-9.97l18.7,12.47,18.7-12.47v.03l.02-.03-.02,34.91h-8.73v-18.53l-9.97,7.31-18.7-13.72ZM13.36,320.53v16.03H4.63v-22.44l8.73,6.41Z"/>
      <path class="cls-2" d="M53.58,317.86h-8.78c.27-4.29,1.95-7.99,5.06-11.1,3.41-3.41,7.52-5.11,12.34-5.11s8.93,1.71,12.34,5.11c3.13,3.11,4.82,6.81,5.09,11.1h-8.78c-.25-1.88-1.07-3.52-2.47-4.94-1.71-1.7-3.77-2.54-6.18-2.54s-4.46.85-6.16,2.54c-1.4,1.41-2.22,3.06-2.47,4.94ZM70.86,320.36h8.78c-.27,4.29-1.96,7.99-5.09,11.1-3.41,3.41-7.52,5.11-12.34,5.11s-8.94-1.7-12.34-5.11c-3.11-3.11-4.8-6.81-5.06-11.1h8.78c.25,1.88,1.07,3.52,2.47,4.91,1.7,1.71,3.75,2.57,6.16,2.57s4.47-.86,6.18-2.57c1.4-1.4,2.22-3.03,2.47-4.91Z"/>
      <path class="cls-2" d="M114.8,336.57l-23.69-18.23-8.73-6.71v-9.97l23.69,18.23v-18.23h8.75l-.02,34.91ZM91.11,320.83v15.73h-8.73v-22.44l8.73,6.71Z"/>
      <path class="cls-2" d="M130.58,312.88c.02-.1.02-.21.02-.32,0-.6-.21-1.11-.64-1.53-.42-.42-.94-.64-1.53-.64s-1.13.21-1.56.64c-.42.42-.64.93-.64,1.53s.21,1.14.64,1.56c.42.42.94.64,1.56.64.38,0,.76.02,1.12.05l-4.51,8.18c-1.61-.52-3.06-1.41-4.34-2.69-2.13-2.13-3.19-4.7-3.19-7.73s1.06-5.58,3.19-7.7c2.13-2.13,4.7-3.19,7.73-3.19s5.58,1.06,7.7,3.19c2.13,2.13,3.19,4.7,3.19,7.7v.32h-8.75ZM126.27,325.35c-.02.1-.03.2-.03.3,0,.61.21,1.13.64,1.56.42.42.94.64,1.56.64s1.11-.21,1.53-.64c.42-.42.64-.94.64-1.56s-.21-1.11-.64-1.53c-.42-.42-.94-.64-1.53-.64-.38,0-.77-.02-1.15-.05l4.51-8.18c1.61.51,3.06,1.41,4.34,2.69,2.13,2.13,3.19,4.7,3.19,7.71s-1.06,5.6-3.19,7.73c-2.13,2.13-4.7,3.19-7.7,3.19s-5.6-1.06-7.73-3.19c-2.13-2.13-3.19-4.7-3.19-7.73v-.3h8.75Z"/>
      <path class="cls-2" d="M142.05,301.66h21.2v8.73h-21.2v-8.73ZM148.29,312.88h8.75l-.03,23.69h-8.73v-23.69Z"/>
      <path class="cls-2" d="M165.97,301.66h8.75l-.03,34.91h-8.73v-34.91ZM177.19,301.66h13.71v8.73h-13.71v-8.73ZM177.19,314.75h13.71v8.73h-13.71v-8.73ZM177.19,327.84h13.71v8.73h-13.71v-8.73Z"/>
      <path class="cls-2" d="M193.65,301.66h8.73v34.91h-8.73v-34.91ZM204.87,310.38v-8.73h4.06c3.01,0,5.58,1.06,7.7,3.19,2.13,2.13,3.19,4.7,3.19,7.7s-1.06,5.6-3.19,7.73c-2.13,2.13-4.7,3.19-7.7,3.19h-4.06v-8.73h4.06c.6,0,1.11-.21,1.53-.64.42-.42.64-.94.64-1.56s-.21-1.11-.64-1.53c-.42-.42-.94-.64-1.53-.64h-4.06ZM209.85,325.35c1.61,0,3.11-.28,4.49-.85l5.49,12.07h-8.73l-5.11-11.22h3.87Z"/>
      <path class="cls-2" d="M235.61,312.88c.02-.1.02-.21.02-.32,0-.6-.21-1.11-.64-1.53-.42-.42-.94-.64-1.53-.64s-1.13.21-1.56.64c-.42.42-.64.93-.64,1.53s.21,1.14.64,1.56c.42.42.94.64,1.56.64.38,0,.76.02,1.12.05l-4.51,8.18c-1.61-.52-3.06-1.41-4.34-2.69-2.13-2.13-3.19-4.7-3.19-7.73s1.06-5.58,3.19-7.7c2.13-2.13,4.7-3.19,7.73-3.19s5.58,1.06,7.7,3.19c2.13,2.13,3.19,4.7,3.19,7.7v.32h-8.75ZM231.3,325.35c-.02.1-.03.2-.03.3,0,.61.21,1.13.64,1.56.42.42.94.64,1.56.64s1.11-.21,1.53-.64c.42-.42.64-.94.64-1.56s-.21-1.11-.64-1.53c-.42-.42-.94-.64-1.53-.64-.38,0-.77-.02-1.15-.05l4.51-8.18c1.61.51,3.06,1.41,4.34,2.69,2.13,2.13,3.19,4.7,3.19,7.71s-1.06,5.6-3.19,7.73c-2.13,2.13-4.7,3.19-7.7,3.19s-5.6-1.06-7.73-3.19c-2.13-2.13-3.19-4.7-3.19-7.73v-.3h8.75Z"/>
    </g>
  </g>
</svg>