<?xml version="1.0" encoding="UTF-8"?>
<svg id="_图层_2" data-name="图层_2" xmlns="http://www.w3.org/2000/svg" viewBox="0 0 383.25 88.25">
  <defs>
    <style>
      .cls-1 {
        fill: #fff;
      }
    </style>
  </defs>
  <g id="_图层_1-2" data-name="图层_1">
    <g>
      <g>
        <path class="cls-1" d="M112.27,42.26v-10.61c-2.28-.3-4.26-1.31-5.95-3.02-2.08-2.06-3.11-4.54-3.11-7.47s1.04-5.42,3.11-7.5c1.69-1.69,3.68-2.69,5.95-2.99V.06c-5.2.32-9.68,2.37-13.45,6.14-4.13,4.13-6.2,9.12-6.2,14.96s2.07,10.83,6.2,14.96c3.77,3.77,8.25,5.82,13.45,6.14Z"/>
        <path class="cls-1" d="M131.4,32.92l-8.8-5.86c-.38.54-.83,1.07-1.33,1.57-1.71,1.71-3.71,2.72-5.99,3.02v10.61c5.2-.32,9.68-2.37,13.45-6.14,1.01-1.01,1.89-2.07,2.66-3.2Z"/>
        <path class="cls-1" d="M122.61,15.27l8.8-5.86c-.77-1.13-1.65-2.2-2.66-3.2-3.77-3.77-8.25-5.81-13.45-6.14v10.61c2.28.3,4.27,1.3,5.99,2.99.5.5.95,1.04,1.33,1.6Z"/>
        <path class="cls-1" d="M166.95,26.45V0h-10.58v26.45c0,1.47-.51,2.72-1.54,3.75-.66.64-1.41,1.09-2.24,1.33v10.73c3.73-.32,6.96-1.85,9.7-4.59,3.1-3.08,4.66-6.82,4.66-11.21Z"/>
        <path class="cls-1" d="M149.57,31.53c-.83-.22-1.57-.66-2.24-1.33-1.03-1.03-1.54-2.28-1.54-3.75V0h-10.58v26.45c0,4.39,1.55,8.13,4.66,11.21,2.72,2.74,5.95,4.27,9.7,4.59v-10.73Z"/>
        <path class="cls-1" d="M201.99,42.32l-6.65-14.63c-1.67.69-3.49,1.03-5.44,1.03h-4.69l6.2,13.6h10.58Z"/>
        <path class="cls-1" d="M198.12,22.58c2.58-2.58,3.87-5.7,3.87-9.37s-1.29-6.76-3.87-9.34c-2.58-2.58-5.69-3.87-9.34-3.87h-4.93v10.58h4.93c.73,0,1.34.26,1.86.77.51.51.77,1.13.77,1.86s-.26,1.38-.77,1.89c-.51.51-1.13.77-1.86.77h-4.93v10.58h4.93c3.65,0,6.76-1.29,9.34-3.87Z"/>
        <rect class="cls-1" x="170.25" width="10.58" height="42.32"/>
        <polygon class="cls-1" points="254.71 42.32 265.29 42.32 265.29 22.13 266.05 21.16 249.42 0 237.33 0 254.68 22.1 254.71 42.32"/>
        <polygon class="cls-1" points="282.67 0 270.58 0 261.51 11.55 267.56 19.23 282.67 0"/>
        <polygon class="cls-1" points="92.62 88.25 103.2 88.25 103.2 68.81 92.62 61.04 92.62 88.25"/>
        <polygon class="cls-1" points="137.96 45.93 115.29 61.04 92.62 45.93 92.62 58.02 115.29 74.65 127.38 65.79 127.38 88.25 137.96 88.25 137.99 45.93 137.96 45.96 137.96 45.93"/>
        <path class="cls-1" d="M169.92,74.56c-2.08,2.08-4.58,3.11-7.5,3.11s-5.41-1.04-7.47-3.11c-1.69-1.69-2.69-3.68-2.99-5.96h-10.64c.32,5.2,2.37,9.68,6.14,13.45,4.13,4.13,9.12,6.2,14.96,6.2s10.83-2.07,14.96-6.2c3.79-3.77,5.84-8.25,6.17-13.45h-10.64c-.3,2.28-1.3,4.26-2.99,5.96Z"/>
        <path class="cls-1" d="M162.42,45.93c-5.84,0-10.83,2.07-14.96,6.2-3.77,3.77-5.81,8.25-6.14,13.45h10.64c.3-2.28,1.3-4.27,2.99-5.99,2.06-2.06,4.54-3.08,7.47-3.08s5.42,1.03,7.5,3.08c1.69,1.71,2.69,3.71,2.99,5.99h10.64c-.32-5.2-2.38-9.68-6.17-13.45-4.13-4.13-9.12-6.2-14.96-6.2Z"/>
        <polygon class="cls-1" points="186.88 88.25 197.46 88.25 197.46 69.18 186.88 61.04 186.88 88.25"/>
        <polygon class="cls-1" points="215.59 68.03 186.88 45.93 186.88 58.02 197.46 66.15 226.17 88.25 226.2 45.93 215.59 45.93 215.59 68.03"/>
        <path class="cls-1" d="M242.71,45.93c-3.67,0-6.79,1.29-9.37,3.87-2.58,2.58-3.87,5.69-3.87,9.34s1.29,6.79,3.87,9.37c1.55,1.55,3.31,2.64,5.26,3.26l5.47-9.92c-.44-.04-.9-.06-1.36-.06-.75,0-1.38-.26-1.89-.77-.51-.51-.77-1.14-.77-1.89s.26-1.34.77-1.86c.51-.51,1.14-.77,1.89-.77s1.34.26,1.86.77c.51.51.77,1.13.77,1.86,0,.14-.01.27-.03.39h10.61v-.39c0-3.65-1.29-6.76-3.87-9.34-2.58-2.58-5.69-3.87-9.34-3.87Z"/>
        <path class="cls-1" d="M246.79,62.41l-5.47,9.91c.46.04.93.06,1.39.06.73,0,1.34.26,1.86.77.51.51.77,1.13.77,1.86s-.26,1.37-.77,1.89c-.51.51-1.13.77-1.86.77s-1.38-.26-1.89-.77c-.51-.51-.77-1.14-.77-1.89,0-.12.01-.24.03-.36h-10.61v.36c0,3.67,1.29,6.79,3.87,9.37,2.58,2.58,5.7,3.87,9.37,3.87s6.76-1.29,9.34-3.87c2.58-2.58,3.87-5.7,3.87-9.37s-1.29-6.76-3.87-9.34c-1.55-1.55-3.31-2.64-5.26-3.26Z"/>
        <polygon class="cls-1" points="266.77 88.25 277.35 88.25 277.38 59.53 266.77 59.53 266.77 88.25"/>
        <rect class="cls-1" x="259.22" y="45.93" width="25.69" height="10.58"/>
        <polygon class="cls-1" points="288.21 88.25 298.79 88.25 298.82 45.93 288.21 45.93 288.21 88.25"/>
        <rect class="cls-1" x="301.81" y="45.93" width="16.63" height="10.58"/>
        <rect class="cls-1" x="301.81" y="77.67" width="16.63" height="10.58"/>
        <rect class="cls-1" x="301.81" y="61.8" width="16.63" height="10.58"/>
        <path class="cls-1" d="M340.29,45.93h-4.93v10.58h4.93c.73,0,1.34.26,1.86.77.51.51.77,1.13.77,1.86s-.26,1.38-.77,1.89c-.51.51-1.13.77-1.86.77h-4.93v10.58h4.93c3.65,0,6.76-1.29,9.34-3.87,2.58-2.58,3.87-5.7,3.87-9.37s-1.29-6.76-3.87-9.34c-2.58-2.58-5.69-3.87-9.34-3.87Z"/>
        <rect class="cls-1" x="321.76" y="45.93" width="10.58" height="42.32"/>
        <path class="cls-1" d="M341.41,74.65h-4.69l6.2,13.6h10.58l-6.65-14.63c-1.67.69-3.49,1.03-5.44,1.03Z"/>
        <path class="cls-1" d="M374.12,62.41l-5.47,9.91c.46.04.93.06,1.39.06.73,0,1.34.26,1.86.77.51.51.77,1.13.77,1.86s-.26,1.37-.77,1.89c-.51.51-1.13.77-1.86.77s-1.38-.26-1.89-.77c-.51-.51-.77-1.14-.77-1.89,0-.12.01-.24.03-.36h-10.61v.36c0,3.67,1.29,6.79,3.87,9.37,2.58,2.58,5.7,3.87,9.37,3.87s6.76-1.29,9.34-3.87c2.58-2.58,3.87-5.7,3.87-9.37s-1.29-6.76-3.87-9.34c-1.55-1.55-3.31-2.64-5.26-3.26Z"/>
        <path class="cls-1" d="M379.38,49.8c-2.58-2.58-5.69-3.87-9.34-3.87s-6.79,1.29-9.37,3.87c-2.58,2.58-3.87,5.69-3.87,9.34s1.29,6.79,3.87,9.37c1.55,1.55,3.31,2.64,5.26,3.26l5.47-9.92c-.44-.04-.9-.06-1.36-.06-.75,0-1.38-.26-1.89-.77-.51-.51-.77-1.14-.77-1.89s.26-1.34.77-1.86c.51-.51,1.14-.77,1.89-.77s1.34.26,1.86.77c.51.51.77,1.13.77,1.86,0,.14-.01.27-.03.39h10.61v-.39c0-3.65-1.29-6.76-3.87-9.34Z"/>
      </g>
      <g>
        <path class="cls-1" d="M215.85,30.64V0h-10.57v42.32h6.08c2.84-3.19,4.49-7.36,4.49-11.68Z"/>
        <path class="cls-1" d="M219.38,31.74c-.2,3.79-1.44,7.45-3.51,10.58h19.65v-10.58h-16.14Z"/>
      </g>
    </g>
    <path class="cls-1" d="M83.03,48.51c-.98,8.87-5,17.22-11.32,23.53-7.47,7.46-17.38,11.56-27.91,11.56-4.58,0-9.05-.77-13.3-2.3l7.25-5.62c5.16-3.99,8.23-10.26,8.23-16.79V4.71c9.69.53,18.82,4.6,25.73,11.51,6.33,6.32,10.35,14.67,11.32,23.53h4.56V.33h-43.8C19.65.33,0,19.98,0,44.13v43.8h87.59v-39.41h-4.56ZM4.33,44.13c0-10.53,4.1-20.44,11.55-27.9,6.91-6.9,16.03-10.98,25.73-11.51v54.18c0,5.17-2.44,10.16-6.53,13.33l-9.17,7.09c-13.32-6.78-21.58-20.24-21.58-35.19Z"/>
  </g>
</svg>