<?xml version="1.0" encoding="UTF-8"?>
<svg xmlns="http://www.w3.org/2000/svg" version="1.1" viewBox="0 0 1968.5 1969.8">
  <defs>
    <style>
      .cls-1 {
        fill: #969696;
      }
    </style>
  </defs>
  <!-- Generator: Adobe Illustrator 28.6.0, SVG Export Plug-In . SVG Version: 1.2.0 Build 709)  -->
  <g>
    <g id="_图层_1" data-name="图层_1">
      <g id="_图层_2">
        <g id="_图层_1-2">
          <path class="cls-1" d="M989.6.3c131.5,0,263,.7,394.5,0,342.6-2.1,575.5,220,581.2,563.6,4.6,278.2,4.3,556.5-.8,834.7-5.9,322.1-181.8,535.8-502.2,557.5-326.9,22.1-657.6,15.8-984.9-4.8-254.9-16.1-445.1-195.5-460.8-446.9C-5.2,1154.5-6.6,801.1,18.9,451.9,38.9,177.5,263.5,7,542,1.5c149.2-3,298.4-.5,447.6-.5V.3h0ZM184.6,977.7h-.7c0,144.3-2.4,288.7.6,432.9,4.6,222.8,143.3,366.8,366.5,370.9,288.5,5.2,577.3,5.9,865.8,0,225.3-4.5,373-157.9,375.9-383.3,3.6-278.4,3.6-556.9.6-835.3-2.3-213.4-127.5-349.6-339.1-377.3-42.4-5.6-85.6-6.7-128.5-6.5-270.7,1.7-541.8-3.9-811.9,9.4-203.4,10-325,152.7-328.6,356.2-2.5,144.2-.5,288.6-.5,432.9h-.1Z"/>
          <path class="cls-1" d="M992.2,472.7c279.8,5.3,503,236,497.9,514.4-5.2,282.8-237.5,503-523.4,496.3-273.7-6.4-497-240-491.8-514.4,5.3-277.6,238.8-501.7,517.3-496.3h0ZM657.7,975c-2.8,175.9,141.9,324.5,319.3,328,180.6,3.5,329.5-141,332.5-322.6,2.9-176.6-141.1-324.3-319.2-327.3-181.2-3.1-329.6,140.6-332.5,322h0Z"/>
          <path class="cls-1" d="M1625.2,460.5c-1.6,63.4-56,113.3-120.1,110.1-61.1-3.1-109.1-54-107.8-114.4,1.3-63.6,56.2-114.7,119.5-111.4,59,3.1,109.9,57.4,108.4,115.7h0Z"/>
        </g>
      </g>
    </g>
  </g>
</svg>