<?xml version="1.0" encoding="UTF-8"?>
<svg xmlns="http://www.w3.org/2000/svg" version="1.1" viewBox="0 0 2499.7 2024.2">
  <defs>
    <style>
      .cls-1 {
        fill: #969696;
      }
    </style>
  </defs>
  <!-- Generator: Adobe Illustrator 28.6.0, SVG Export Plug-In . SVG Version: 1.2.0 Build 709)  -->
  <g>
    <g id="_图层_1" data-name="图层_1">
      <g id="_图层_1-2" data-name="_图层_1">
        <path class="cls-1" d="M2499.7,1313.8c0-347.3-335.9-630.6-749.5-630.6s-747.2,283.3-747.2,630.6,335.9,630.6,749.5,630.6,155.4-9.1,226.2-29.7c20.6-4.6,43.4-2.3,64,6.9l185.1,100.5c11.4,6.9,27.4-4.6,22.8-18.3l-36.6-148.5c-4.6-22.8,2.3-45.7,22.8-59.4,160.1-116.5,262.9-287.9,262.9-482.1ZM1482.9,1231.6c-57.1,0-102.8-45.7-102.8-102.8s45.7-102.8,102.8-102.8,102.8,45.7,102.8,102.8-45.7,102.8-102.8,102.8ZM1987.9,1231.6c-57.1,0-102.8-45.7-102.8-102.8s45.7-102.8,102.8-102.8,102.8,45.7,102.8,102.8-48,102.8-102.8,102.8h0Z"/>
        <path class="cls-1" d="M941.4,1316.1c0-386.1,365.6-699.2,818-699.2h34.3C1720.5,267.3,1350.4,0,904.8,0S0,333.6,0,747.2s125.7,434.1,322.2,571.2c13.7,9.1,18.3,25.1,16,41.1l-68.5,242.2c-4.6,16,13.7,32,29.7,22.8l267.3-159.9c18.3-11.4,38.8-13.7,59.4-6.9,89.1,22.8,182.8,36.6,278.8,36.6s41.1,0,64-2.3c-18.4-57.1-27.5-116.5-27.5-175.9h0ZM1208.7,395.3c66.3,0,121.1,54.8,121.1,121.1s-54.8,121.1-121.1,121.1-121.1-54.8-121.1-121.1,54.9-121.1,121.1-121.1h0ZM600.9,637.5c-66.3,0-121.1-54.8-121.1-121.1s54.8-121.1,121.1-121.1,121.1,54.8,121.1,121.1-52.5,121.1-121.1,121.1Z"/>
      </g>
    </g>
  </g>
</svg>