<?xml version="1.0" encoding="UTF-8"?>
<svg xmlns="http://www.w3.org/2000/svg" version="1.1" viewBox="0 0 2594.4 928.4">
  <defs>
    <style>
      .cls-1 {
        fill: #969696;
      }
    </style>
  </defs>
  <!-- Generator: Adobe Illustrator 28.6.0, SVG Export Plug-In . SVG Version: 1.2.0 Build 709)  -->
  <g>
    <g id="_图层_1" data-name="图层_1">
      <g id="_图层_2">
        <g id="_图层_1-2">
          <g>
            <path class="cls-1" d="M1927.6,747.9c0-50-.8-100,.3-150,.5-21.3-6.3-30-28.6-29.3-38.7,1.3-77.4-.2-116.1.6-18.8.4-28.2-5.7-27.8-25.9.7-42.4.7-84.9,0-127.3-.3-20.1,8.9-26.4,27.8-26.1,38.7.8,77.4-.7,116.1.5,22.2.7,29.4-7.9,28.5-29.3-1.3-32.5-.8-65.2-.2-97.7.3-16.4-5.8-23.6-22.6-23-21.2.7-42.5-.2-63.7.1-18.6.3-27.9-6.9-27.6-26.9.8-43.2.7-86.4,0-129.6-.3-18.7,8.1-26,26.1-25.5,20.5.5,41-.5,61.5.2,17.7.6,26.4-5.1,26.4-24.5,0-31.9,3-33.9,35.8-34.1,38.7-.2,77.4.5,116.1-.2,19.6-.4,26.9,7.7,27,27.1,0,31.5.9,31,31.6,31.7,34.8.8,69.8-2.7,104.5,3,87.6,14.4,149.1,85,150.2,173.6.5,43.2.7,86.4-.2,129.6-.4,18.1,5.4,25.3,24.6,25.9,101.5,3,173.8,75.4,175.8,176.8,1.3,65.9,1.4,131.8,0,197.7-2,96.7-70.6,162.5-167.7,162.8-39.5,0-78.9-.4-118.4.2-16.5.3-26.5-5.1-33.2-21.1-15.4-37.1-32.6-73.3-49-110-12.8-28.7-9.9-33.3,20.8-33.5,43.2-.2,86.5.2,129.8-.2,30.2-.2,35.7-6,35.9-36.2.2-37.9.4-75.8-.1-113.7-.4-28.1-15.5-44.1-43.6-44.3-79.7-.7-159.4,0-239-.6-19.1-.2-22.6,9.1-22.5,25.4.4,98.5.2,197,.1,295.5,0,37.9-.6,38.4-37.8,38.5-37.9,0-75.9-.8-113.8.3-21.1.6-27.9-7.9-27.6-28.2.9-50.8.3-101.5.3-152.3h.3ZM2106.6,314.1c0,18.2.2,36.4,0,54.6-.2,13.6,5,21.7,19.8,21.6,22-.1,44-.1,66,0,13.6.1,19-6.7,18.9-19.7-.2-34.9,0-69.7-.2-104.6,0-16.7-9.1-25.1-25.6-25.2-19-.2-38,.4-56.9-.3-17.2-.7-22.8,7.7-22.1,23.6.6,16.6.1,33.3.2,50h0Z"/>
            <path class="cls-1" d="M1482.2,928.1c-86.5,0-173,0-259.6,0-28.8,0-31.5-3.8-20.3-30,18.5-43.2,37.7-86,56.2-129.2,5.8-13.5,14.7-19.8,29.8-19.5,35.7.6,71.4-.5,107,.4,19.2.5,27.2-5.8,27.1-26-.6-153.1-.5-306.1,0-459.2,0-17.5-6.1-24.9-23.9-24.1-19.7.9-39.5-.1-59.2,0-16.9.1-25.3-7.6-25.3-24.7,0-44.7,0-89.4,0-134.1,0-16,8-23,24.1-23,117.6.2,235.3.2,352.9,0,17.7,0,24.2,8.2,24,25.2-.5,43.9-.5,87.9,0,131.8.2,17.7-8.1,24.8-24.8,24.7-20.5,0-41,.6-61.5,0-15.8-.4-23.8,4.9-23.7,22.1.3,155.3.3,310.7,0,466,0,15.9,7,21.2,22.1,21.1,40.2-.5,80.4.4,120.7-.3,18.4-.3,26.2,7,26,25.5-.5,42.4-.7,84.9,0,127.3.3,19.9-8.6,26.4-27.6,26.2-88-.5-176.1-.2-264.1-.2h0Z"/>
            <path class="cls-1" d="M508,402.3c0,118.9.1,237.8,0,356.7-.1,100.1-68.5,168.8-168.1,169.1h-11.4c-66.1-1.4-50.2,10.6-81.1-52.9-13.6-27.9-25.8-56.5-37.9-85-8.7-20.5-5-25.9,17.4-26.4,24.3-.6,48.5-.3,72.8-.3s25.2-8,25.1-25c-.1-18.9.1-37.9.1-56.8V36.5C324.9,1.7,326.3.2,360.3.2S437.7,0,476.3.2c27.7.2,31.6,4.1,31.6,31.7.1,123.4,0,246.9,0,370.3h0Z"/>
            <path class="cls-1" d="M1080,686.1c-30.3,0-60.7.2-91,0-59.1-.5-78.2-52.2-56.2-92.2,30.1-54.9,52.1-114.3,78.2-171.5,7.2-15.6,4.3-22.4-13.6-22.6-23.5-.3-47,1.9-70.4-2.5-41.5-7.8-61.6-40.7-44.9-79.1,43.8-100.7,89.3-200.6,134-301,5.3-12,14.4-16.8,27-16.8,44,0,88-.5,132,.2,23.3.4,27.1,6.5,17.7,28.1-24.7,57-50.5,113.5-75.2,170.4-11.3,26.1-6.8,32.2,22.1,32.5,33.4.4,66.8-.2,100.2.2,24.4.3,28.4,6.6,18.3,29.2-31.4,70.5-63.2,140.9-94.8,211.4-3.4,7.6-6.4,15.4-9.4,23.1-5.5,14.6.5,22.1,15.4,22.4,23.5.5,47.1,0,70.6.5,23.2.6,27.9,7.2,19.1,27.8-17.1,39.7-35.5,78.7-52.4,118.4-7,16.5-18.1,22.1-35.5,21.6-30.3-.9-60.7-.3-91-.3h0l-.2.2Z"/>
            <path class="cls-1" d="M127.6,231.8c19.7,0,39.4-.2,59.2,0,27.3.3,31,3.4,29.6,30.1-2.5,46.1-5.9,92.1-9.5,138.1-5.7,71.6-10.3,143.4-18.2,214.8-8.7,78-37,149.6-80.5,215.1-12.5,18.8-20.4,18.5-29.7-1.8-25.4-55.8-49.9-112.1-74.9-168.1-3.9-8.8-4.6-17.3-2.3-26.5,15-59.2,13.2-120.2,18.7-180.3,6.1-66.3,11.7-132.6,16.9-199,1.3-16.4,9-22.7,24.7-22.4,22,.4,44,.1,66,.1h0Z"/>
            <path class="cls-1" d="M703.2,231.9c22,0,44,.5,66-.2,16.8-.5,24.9,6,26.2,23.3,5.5,74.7,11.3,149.4,17.9,223.9,4.8,53.4,2.8,107.6,18.4,159.7,2.4,7.9,0,14.8-3.2,21.8-24.8,55.3-49.3,110.7-74.1,165.9-2.9,6.5-3.8,16.1-13.2,16.8-9,.7-12.3-7.6-16.4-13.8-54-80.8-80.2-170.2-86-266.9-5-83.8-13.8-167.4-20.6-251-1.7-20.4-2-40.8-3.2-61.2-.9-14.6,7.8-18.3,19.9-18.4h68.3,0Z"/>
            <path class="cls-1" d="M979,928c-35.7-1.9-79.1,4.3-121.8-5.6-26.3-6.1-29.8-11.5-19-35.8,20-45,40.8-89.6,61.2-134.4,4.3-9.5,8.9-18.3,21.8-13.8,41.2,14.4,83.9,10.7,126.2,10.9,36.4.2,72.8-.2,109.2.2,22.3.3,25.5,5.9,16.4,26.2-19.5,43.5-39.5,86.8-58.2,130.7-6.6,15.4-16,22.2-32.9,21.8-31.8-.8-63.7-.2-103-.2h0Z"/>
            <path class="cls-1" d="M2469.9,240c-38.8.3-58.2-19.1-58.2-58.3s-1-59.5,18.7-84.7c27.8-35.7,70.8-47.4,109.5-30.1,34,15.2,57.7,57.1,52.3,92.6-6.8,44.7-39.8,75.9-85.9,80.4-12,1.2-24.2.2-36.4.2h0Z"/>
          </g>
        </g>
      </g>
    </g>
  </g>
</svg>