<?xml version="1.0" encoding="UTF-8"?>
<svg xmlns="http://www.w3.org/2000/svg" version="1.1" viewBox="0 0 1671.8 1205.5">
  <defs>
    <style>
      .cls-1 {
        fill: #969696;
      }
    </style>
  </defs>
  <!-- Generator: Adobe Illustrator 28.6.0, SVG Export Plug-In . SVG Version: 1.2.0 Build 709)  -->
  <g>
    <g id="_图层_1" data-name="图层_1">
      <g id="_图层_1-2" data-name="_图层_1">
        <g id="_图层_2">
          <g id="_图层_1-2">
            <path class="cls-1" d="M833.1,1205.2c-215.3,0-430.5.2-645.8,0-113.3-.2-186.9-73-187.1-185.5C0,741.3-.1,463.1.3,184.8.5,74.2,74.2.4,184.4.3c433.1-.3,866.2-.4,1299.4,0,114.1,0,187.9,74.9,187.9,189.5.2,275.7.2,551.4,0,827.1,0,114.1-74.2,188.4-188.9,188.5-216.6.3-433.1,0-649.7,0v-.2h0ZM1522.1,1134.6c-183.1-180.1-358.7-352.8-535.6-526.8-102.4,93.4-203.2,88.4-308-4-172.4,179.7-342.1,356.5-509.4,530.8h1353ZM143.2,73.5c-2.4,4.1-4.8,8.2-7.1,12.3,6.1,2.5,13.2,3.8,18.1,7.8,201.9,162.2,403.4,324.8,605.6,486.7,48.1,38.5,105.8,36.8,156.2-3.5,199-159.6,397.7-319.6,596.3-479.6,6.2-5,10.8-12,20.9-23.6H143.2ZM1602.6,132c-6-1.8-11.9-3.7-17.9-5.5-180.7,145.3-361.4,290.7-544.6,438,181.9,178.8,359.4,353.3,542.9,533.6,8.3-24.3,18.8-40.6,18.9-57,1-303.1.7-606.1.7-909.2h0ZM85.4,1101.6c188-184.9,365.6-359.7,545.8-537C446.5,416,265.7,270.6,77.9,119.5c-4.1,26.7-8.6,42.9-8.6,59-.4,282.2-.7,564.3.3,846.5,0,21.9,8.8,43.8,15.9,76.6h-.1Z"/>
          </g>
        </g>
      </g>
    </g>
  </g>
</svg>